<svg id="visual" viewBox="0 0 2100 1200" width="2100" height="1200" xmlns="http://www.w3.org/2000/svg" xmlns:xlink="http://www.w3.org/1999/xlink" version="1.1"><rect x="0" y="0" width="2100" height="1200" fill="#00302e"></rect><defs><linearGradient id="grad1_0" x1="42.9%" y1="0%" x2="100%" y2="100%"><stop offset="15%" stop-color="#00302e" stop-opacity="1"></stop><stop offset="85%" stop-color="#00302e" stop-opacity="1"></stop></linearGradient></defs><defs><linearGradient id="grad2_0" x1="0%" y1="0%" x2="57.1%" y2="100%"><stop offset="15%" stop-color="#00302e" stop-opacity="1"></stop><stop offset="85%" stop-color="#00302e" stop-opacity="1"></stop></linearGradient></defs><g transform="translate(2100, 0)"><path d="M0 873C-150 851.3 -300 829.6 -440.5 763C-581 696.3 -711.9 584.7 -779.4 450C-846.9 315.3 -851 157.7 -855 0L0 0Z" fill="#6ead3d"></path></g><g transform="translate(0, 1200)"><path d="M0 -883C148 -850.1 296 -817.2 432 -748.2C568 -679.3 692.2 -574.2 768.2 -443.5C844.2 -312.8 872.1 -156.4 900 0L0 0Z" fill="#6ead3d"></path></g></svg>